<mxfile host="app.diagrams.net" modified="2022-03-16T06:48:48.741Z" agent="5.0 (Windows NT 10.0; Win64; x64) AppleWebKit/537.36 (KHTML, like Gecko) Chrome/96.0.4664.45 Safari/537.36" etag="gyFENrdFpPxFjstRuWc-" version="16.5.6" type="github">
  <diagram id="r_oDA48Beyb5aW0bg5-b" name="第 1 页">
    <mxGraphModel dx="1422" dy="1875" grid="1" gridSize="10" guides="1" tooltips="1" connect="1" arrows="1" fold="1" page="1" pageScale="1" pageWidth="827" pageHeight="1169" math="0" shadow="0">
      <root>
        <mxCell id="0" />
        <mxCell id="1" parent="0" />
        <mxCell id="2rhxEFoWDrhF9qIGfpkR-41" value="" style="rounded=0;whiteSpace=wrap;html=1;fontSize=18;" vertex="1" parent="1">
          <mxGeometry x="40" y="760" width="1540" height="150" as="geometry" />
        </mxCell>
        <mxCell id="2rhxEFoWDrhF9qIGfpkR-40" value="" style="rounded=0;whiteSpace=wrap;html=1;fontSize=18;" vertex="1" parent="1">
          <mxGeometry x="40" y="-10" width="1540" height="710" as="geometry" />
        </mxCell>
        <mxCell id="2rhxEFoWDrhF9qIGfpkR-3" value="" style="edgeStyle=orthogonalEdgeStyle;rounded=0;orthogonalLoop=1;jettySize=auto;html=1;fontSize=18;" edge="1" parent="1" source="2rhxEFoWDrhF9qIGfpkR-1" target="2rhxEFoWDrhF9qIGfpkR-2">
          <mxGeometry relative="1" as="geometry" />
        </mxCell>
        <mxCell id="2rhxEFoWDrhF9qIGfpkR-4" value="新增" style="edgeLabel;html=1;align=center;verticalAlign=middle;resizable=0;points=[];fontSize=18;" vertex="1" connectable="0" parent="2rhxEFoWDrhF9qIGfpkR-3">
          <mxGeometry x="-0.2308" relative="1" as="geometry">
            <mxPoint as="offset" />
          </mxGeometry>
        </mxCell>
        <mxCell id="2rhxEFoWDrhF9qIGfpkR-1" value="采购管理" style="rounded=0;whiteSpace=wrap;html=1;fontSize=18;" vertex="1" parent="1">
          <mxGeometry x="100" y="220" width="120" height="60" as="geometry" />
        </mxCell>
        <mxCell id="2rhxEFoWDrhF9qIGfpkR-13" style="edgeStyle=orthogonalEdgeStyle;rounded=0;orthogonalLoop=1;jettySize=auto;html=1;entryX=0;entryY=0.5;entryDx=0;entryDy=0;fontSize=18;" edge="1" parent="1" source="2rhxEFoWDrhF9qIGfpkR-2" target="2rhxEFoWDrhF9qIGfpkR-7">
          <mxGeometry relative="1" as="geometry" />
        </mxCell>
        <mxCell id="2rhxEFoWDrhF9qIGfpkR-14" style="edgeStyle=orthogonalEdgeStyle;rounded=0;orthogonalLoop=1;jettySize=auto;html=1;entryX=0;entryY=0.5;entryDx=0;entryDy=0;fontSize=18;" edge="1" parent="1" source="2rhxEFoWDrhF9qIGfpkR-2" target="2rhxEFoWDrhF9qIGfpkR-5">
          <mxGeometry relative="1" as="geometry" />
        </mxCell>
        <mxCell id="2rhxEFoWDrhF9qIGfpkR-2" value="采购订单" style="rounded=0;whiteSpace=wrap;html=1;fontSize=18;fillColor=#dae8fc;strokeColor=#6c8ebf;" vertex="1" parent="1">
          <mxGeometry x="350" y="220" width="120" height="60" as="geometry" />
        </mxCell>
        <mxCell id="2rhxEFoWDrhF9qIGfpkR-17" style="edgeStyle=orthogonalEdgeStyle;rounded=0;orthogonalLoop=1;jettySize=auto;html=1;entryX=0;entryY=0.5;entryDx=0;entryDy=0;fontSize=18;" edge="1" parent="1" source="2rhxEFoWDrhF9qIGfpkR-5" target="2rhxEFoWDrhF9qIGfpkR-15">
          <mxGeometry relative="1" as="geometry" />
        </mxCell>
        <mxCell id="2rhxEFoWDrhF9qIGfpkR-48" style="edgeStyle=orthogonalEdgeStyle;rounded=0;orthogonalLoop=1;jettySize=auto;html=1;fontSize=18;" edge="1" parent="1" source="2rhxEFoWDrhF9qIGfpkR-5" target="2rhxEFoWDrhF9qIGfpkR-47">
          <mxGeometry relative="1" as="geometry" />
        </mxCell>
        <mxCell id="2rhxEFoWDrhF9qIGfpkR-5" value="计划采购" style="whiteSpace=wrap;html=1;rounded=0;fontSize=18;fillColor=#fff2cc;strokeColor=#d6b656;" vertex="1" parent="1">
          <mxGeometry x="600" y="270" width="120" height="60" as="geometry" />
        </mxCell>
        <mxCell id="2rhxEFoWDrhF9qIGfpkR-16" style="edgeStyle=orthogonalEdgeStyle;rounded=0;orthogonalLoop=1;jettySize=auto;html=1;entryX=0;entryY=0.5;entryDx=0;entryDy=0;fontSize=18;" edge="1" parent="1" source="2rhxEFoWDrhF9qIGfpkR-7" target="2rhxEFoWDrhF9qIGfpkR-15">
          <mxGeometry relative="1" as="geometry" />
        </mxCell>
        <mxCell id="2rhxEFoWDrhF9qIGfpkR-26" value="" style="edgeStyle=orthogonalEdgeStyle;rounded=0;orthogonalLoop=1;jettySize=auto;html=1;fontSize=18;" edge="1" parent="1" source="2rhxEFoWDrhF9qIGfpkR-7" target="2rhxEFoWDrhF9qIGfpkR-25">
          <mxGeometry relative="1" as="geometry">
            <Array as="points">
              <mxPoint x="660" y="130" />
              <mxPoint x="660" y="130" />
            </Array>
          </mxGeometry>
        </mxCell>
        <mxCell id="2rhxEFoWDrhF9qIGfpkR-27" value="只有现购商品才能进行采购预付" style="edgeLabel;html=1;align=center;verticalAlign=middle;resizable=0;points=[];fontSize=18;" vertex="1" connectable="0" parent="2rhxEFoWDrhF9qIGfpkR-26">
          <mxGeometry x="-0.2923" y="3" relative="1" as="geometry">
            <mxPoint x="3" y="-11" as="offset" />
          </mxGeometry>
        </mxCell>
        <mxCell id="2rhxEFoWDrhF9qIGfpkR-7" value="零星采购" style="whiteSpace=wrap;html=1;rounded=0;fontSize=18;fillColor=#fff2cc;strokeColor=#d6b656;" vertex="1" parent="1">
          <mxGeometry x="600" y="170" width="120" height="60" as="geometry" />
        </mxCell>
        <mxCell id="2rhxEFoWDrhF9qIGfpkR-20" style="edgeStyle=orthogonalEdgeStyle;rounded=0;orthogonalLoop=1;jettySize=auto;html=1;fontSize=18;" edge="1" parent="1" source="2rhxEFoWDrhF9qIGfpkR-15" target="2rhxEFoWDrhF9qIGfpkR-19">
          <mxGeometry relative="1" as="geometry" />
        </mxCell>
        <mxCell id="2rhxEFoWDrhF9qIGfpkR-30" style="edgeStyle=orthogonalEdgeStyle;rounded=0;orthogonalLoop=1;jettySize=auto;html=1;entryX=0;entryY=0.5;entryDx=0;entryDy=0;fontSize=18;" edge="1" parent="1" source="2rhxEFoWDrhF9qIGfpkR-15" target="2rhxEFoWDrhF9qIGfpkR-28">
          <mxGeometry relative="1" as="geometry">
            <Array as="points">
              <mxPoint x="1060" y="60" />
            </Array>
          </mxGeometry>
        </mxCell>
        <mxCell id="2rhxEFoWDrhF9qIGfpkR-33" style="edgeStyle=orthogonalEdgeStyle;rounded=0;orthogonalLoop=1;jettySize=auto;html=1;fontSize=18;" edge="1" parent="1" source="2rhxEFoWDrhF9qIGfpkR-15" target="2rhxEFoWDrhF9qIGfpkR-32">
          <mxGeometry relative="1" as="geometry">
            <Array as="points">
              <mxPoint x="1050" y="420" />
            </Array>
          </mxGeometry>
        </mxCell>
        <mxCell id="2rhxEFoWDrhF9qIGfpkR-15" value="采购入库" style="rounded=0;whiteSpace=wrap;html=1;fontSize=18;fillColor=#dae8fc;strokeColor=#6c8ebf;" vertex="1" parent="1">
          <mxGeometry x="1000" y="220" width="120" height="60" as="geometry" />
        </mxCell>
        <mxCell id="2rhxEFoWDrhF9qIGfpkR-31" style="edgeStyle=orthogonalEdgeStyle;rounded=0;orthogonalLoop=1;jettySize=auto;html=1;entryX=1;entryY=0.5;entryDx=0;entryDy=0;fontSize=18;" edge="1" parent="1" source="2rhxEFoWDrhF9qIGfpkR-19" target="2rhxEFoWDrhF9qIGfpkR-28">
          <mxGeometry relative="1" as="geometry">
            <Array as="points">
              <mxPoint x="1330" y="60" />
            </Array>
          </mxGeometry>
        </mxCell>
        <mxCell id="2rhxEFoWDrhF9qIGfpkR-34" style="edgeStyle=orthogonalEdgeStyle;rounded=0;orthogonalLoop=1;jettySize=auto;html=1;entryX=0.5;entryY=0;entryDx=0;entryDy=0;fontSize=18;" edge="1" parent="1" source="2rhxEFoWDrhF9qIGfpkR-19" target="2rhxEFoWDrhF9qIGfpkR-32">
          <mxGeometry relative="1" as="geometry">
            <Array as="points">
              <mxPoint x="1330" y="420" />
              <mxPoint x="1181" y="420" />
            </Array>
          </mxGeometry>
        </mxCell>
        <mxCell id="2rhxEFoWDrhF9qIGfpkR-19" value="采购退货" style="rounded=0;whiteSpace=wrap;html=1;fontSize=18;fillColor=#dae8fc;strokeColor=#6c8ebf;" vertex="1" parent="1">
          <mxGeometry x="1270" y="220" width="120" height="60" as="geometry" />
        </mxCell>
        <mxCell id="2rhxEFoWDrhF9qIGfpkR-24" style="edgeStyle=orthogonalEdgeStyle;rounded=0;orthogonalLoop=1;jettySize=auto;html=1;fontSize=18;" edge="1" parent="1" source="2rhxEFoWDrhF9qIGfpkR-21">
          <mxGeometry relative="1" as="geometry">
            <mxPoint x="920" y="250" as="targetPoint" />
          </mxGeometry>
        </mxCell>
        <mxCell id="2rhxEFoWDrhF9qIGfpkR-46" value="更新发货状态、快递单号" style="edgeLabel;html=1;align=center;verticalAlign=middle;resizable=0;points=[];fontSize=18;" vertex="1" connectable="0" parent="2rhxEFoWDrhF9qIGfpkR-24">
          <mxGeometry x="0.0429" y="-1" relative="1" as="geometry">
            <mxPoint as="offset" />
          </mxGeometry>
        </mxCell>
        <mxCell id="2rhxEFoWDrhF9qIGfpkR-21" value="供应商发货" style="rounded=0;whiteSpace=wrap;html=1;fontSize=18;fillColor=#d5e8d4;strokeColor=#82b366;" vertex="1" parent="1">
          <mxGeometry x="860" y="805" width="120" height="50" as="geometry" />
        </mxCell>
        <mxCell id="2rhxEFoWDrhF9qIGfpkR-25" value="采购预付单" style="whiteSpace=wrap;html=1;fontSize=18;rounded=0;fillColor=#dae8fc;strokeColor=#6c8ebf;" vertex="1" parent="1">
          <mxGeometry x="600" width="120" height="60" as="geometry" />
        </mxCell>
        <mxCell id="2rhxEFoWDrhF9qIGfpkR-28" value="库存服务&lt;br&gt;更新库存" style="rounded=0;whiteSpace=wrap;html=1;fontSize=18;fillColor=#f8cecc;strokeColor=#b85450;" vertex="1" parent="1">
          <mxGeometry x="1130" y="30" width="120" height="60" as="geometry" />
        </mxCell>
        <mxCell id="2rhxEFoWDrhF9qIGfpkR-37" value="" style="edgeStyle=orthogonalEdgeStyle;rounded=0;orthogonalLoop=1;jettySize=auto;html=1;fontSize=18;" edge="1" parent="1" source="2rhxEFoWDrhF9qIGfpkR-32" target="2rhxEFoWDrhF9qIGfpkR-36">
          <mxGeometry relative="1" as="geometry" />
        </mxCell>
        <mxCell id="2rhxEFoWDrhF9qIGfpkR-39" value="" style="edgeStyle=orthogonalEdgeStyle;rounded=0;orthogonalLoop=1;jettySize=auto;html=1;fontSize=18;" edge="1" parent="1" source="2rhxEFoWDrhF9qIGfpkR-32" target="2rhxEFoWDrhF9qIGfpkR-38">
          <mxGeometry relative="1" as="geometry" />
        </mxCell>
        <mxCell id="2rhxEFoWDrhF9qIGfpkR-32" value="采购对账单" style="rounded=0;whiteSpace=wrap;html=1;fontSize=18;fillColor=#dae8fc;strokeColor=#6c8ebf;" vertex="1" parent="1">
          <mxGeometry x="1121" y="480" width="120" height="60" as="geometry" />
        </mxCell>
        <mxCell id="2rhxEFoWDrhF9qIGfpkR-35" value="根据采购入库、退货单生成对账单&lt;br&gt;只有计划采购类型的订单才能生成对账单" style="text;html=1;strokeColor=none;fillColor=none;align=center;verticalAlign=middle;whiteSpace=wrap;rounded=0;fontSize=18;" vertex="1" parent="1">
          <mxGeometry x="1090.5" y="300" width="199" height="140" as="geometry" />
        </mxCell>
        <mxCell id="2rhxEFoWDrhF9qIGfpkR-36" value="供应商确认对账单" style="whiteSpace=wrap;html=1;fontSize=18;rounded=0;fillColor=#d5e8d4;strokeColor=#82b366;" vertex="1" parent="1">
          <mxGeometry x="1340" y="800" width="160" height="60" as="geometry" />
        </mxCell>
        <mxCell id="2rhxEFoWDrhF9qIGfpkR-45" style="edgeStyle=orthogonalEdgeStyle;rounded=0;orthogonalLoop=1;jettySize=auto;html=1;fontSize=18;" edge="1" parent="1" source="2rhxEFoWDrhF9qIGfpkR-38" target="2rhxEFoWDrhF9qIGfpkR-44">
          <mxGeometry relative="1" as="geometry" />
        </mxCell>
        <mxCell id="2rhxEFoWDrhF9qIGfpkR-38" value="应付确认单" style="whiteSpace=wrap;html=1;fontSize=18;rounded=0;fillColor=#dae8fc;strokeColor=#6c8ebf;" vertex="1" parent="1">
          <mxGeometry x="1121" y="620" width="120" height="60" as="geometry" />
        </mxCell>
        <mxCell id="2rhxEFoWDrhF9qIGfpkR-42" value="ERP" style="text;html=1;strokeColor=none;fillColor=none;align=center;verticalAlign=middle;whiteSpace=wrap;rounded=0;fontSize=18;" vertex="1" parent="1">
          <mxGeometry x="60" y="15" width="60" height="30" as="geometry" />
        </mxCell>
        <mxCell id="2rhxEFoWDrhF9qIGfpkR-43" value="供应商" style="text;html=1;strokeColor=none;fillColor=none;align=center;verticalAlign=middle;whiteSpace=wrap;rounded=0;fontSize=18;" vertex="1" parent="1">
          <mxGeometry x="60" y="780" width="70" height="30" as="geometry" />
        </mxCell>
        <mxCell id="2rhxEFoWDrhF9qIGfpkR-44" value="更新供应商账户余额" style="rounded=0;whiteSpace=wrap;html=1;fontSize=18;fillColor=#d5e8d4;strokeColor=#82b366;" vertex="1" parent="1">
          <mxGeometry x="1130" y="805" width="101" height="60" as="geometry" />
        </mxCell>
        <mxCell id="2rhxEFoWDrhF9qIGfpkR-49" style="edgeStyle=orthogonalEdgeStyle;rounded=0;orthogonalLoop=1;jettySize=auto;html=1;fontSize=18;" edge="1" parent="1" source="2rhxEFoWDrhF9qIGfpkR-47" target="2rhxEFoWDrhF9qIGfpkR-21">
          <mxGeometry relative="1" as="geometry" />
        </mxCell>
        <mxCell id="2rhxEFoWDrhF9qIGfpkR-47" value="查看采购订单" style="rounded=0;whiteSpace=wrap;html=1;fontSize=18;fillColor=#d5e8d4;strokeColor=#82b366;" vertex="1" parent="1">
          <mxGeometry x="600" y="800" width="120" height="60" as="geometry" />
        </mxCell>
        <mxCell id="2rhxEFoWDrhF9qIGfpkR-52" value="" style="edgeStyle=orthogonalEdgeStyle;rounded=0;orthogonalLoop=1;jettySize=auto;html=1;fontSize=18;" edge="1" parent="1" source="2rhxEFoWDrhF9qIGfpkR-50" target="2rhxEFoWDrhF9qIGfpkR-51">
          <mxGeometry relative="1" as="geometry" />
        </mxCell>
        <mxCell id="2rhxEFoWDrhF9qIGfpkR-50" value="销售订单" style="rounded=0;whiteSpace=wrap;html=1;fontSize=18;" vertex="1" parent="1">
          <mxGeometry x="100" y="520" width="110" height="60" as="geometry" />
        </mxCell>
        <mxCell id="2rhxEFoWDrhF9qIGfpkR-54" value="" style="edgeStyle=orthogonalEdgeStyle;rounded=0;orthogonalLoop=1;jettySize=auto;html=1;fontSize=18;" edge="1" parent="1" source="2rhxEFoWDrhF9qIGfpkR-51" target="2rhxEFoWDrhF9qIGfpkR-53">
          <mxGeometry relative="1" as="geometry" />
        </mxCell>
        <mxCell id="2rhxEFoWDrhF9qIGfpkR-51" value="联营商品" style="whiteSpace=wrap;html=1;fontSize=18;rounded=0;" vertex="1" parent="1">
          <mxGeometry x="285" y="520" width="120" height="60" as="geometry" />
        </mxCell>
        <mxCell id="2rhxEFoWDrhF9qIGfpkR-55" style="edgeStyle=orthogonalEdgeStyle;rounded=0;orthogonalLoop=1;jettySize=auto;html=1;entryX=0.5;entryY=0;entryDx=0;entryDy=0;fontSize=18;" edge="1" parent="1" source="2rhxEFoWDrhF9qIGfpkR-53" target="2rhxEFoWDrhF9qIGfpkR-44">
          <mxGeometry relative="1" as="geometry">
            <Array as="points">
              <mxPoint x="545" y="730" />
              <mxPoint x="1181" y="730" />
            </Array>
          </mxGeometry>
        </mxCell>
        <mxCell id="2rhxEFoWDrhF9qIGfpkR-56" value="更新余额" style="edgeLabel;html=1;align=center;verticalAlign=middle;resizable=0;points=[];fontSize=18;" vertex="1" connectable="0" parent="2rhxEFoWDrhF9qIGfpkR-55">
          <mxGeometry x="-0.1121" y="-1" relative="1" as="geometry">
            <mxPoint as="offset" />
          </mxGeometry>
        </mxCell>
        <mxCell id="2rhxEFoWDrhF9qIGfpkR-53" value="联营结算单" style="whiteSpace=wrap;html=1;fontSize=18;rounded=0;" vertex="1" parent="1">
          <mxGeometry x="485" y="520" width="120" height="60" as="geometry" />
        </mxCell>
      </root>
    </mxGraphModel>
  </diagram>
</mxfile>
